# xmcd
#
# Track frame offsets: 
#        183
#        12573
#        35623
#        49415
#        68668
#        83603
#        102348
#        119573
#        143408
#        163925
#
# Disc length: 2680 seconds
#
# Revision: 2
# Processed by: cddbd v1.5.2PL0 Copyright (c) Steve Scherf et al.
# Submitted via: ExactAudioCopy v0.95b4
#
DISCID=860a760a
DTITLE=Roy Buchanan - Hot Wires
DYEAR=1987
DGENRE=Blues
TTITLE0=High Wire
TTITLE1=That Did It
TTITLE2=Goose Grease
TTITLE3=Sunset Over Broadway
TTITLE4=Ain't No Business
TTITLE5=Flash Chordin'
TTITLE6=25 Miles
TTITLE7=These Arms Of Mine
TTITLE8=Country Boogie
TTITLE9=The Blues Lover
EXTD=
EXTT0=
EXTT1=
EXTT2=
EXTT3=
EXTT4=
EXTT5=
EXTT6=
EXTT7=
EXTT8=
EXTT9=
PLAYORDER=
